<?xml version="1.0" encoding="UTF-8"?>
<svg xmlns="http://www.w3.org/2000/svg" width="108" height="56" viewBox="0 0 108 56" fill="none">
  <g id="Logo">
    <g id="&lt;Group&gt;">
      <g id="&lt;Group&gt;_2">
        <g id="&lt;Group&gt;_3">
          <path id="&lt;Path&gt;" d="M95.2769 20.4688L89.5882 10.2534L89.5978 10.2626L84.8027 1.32422H72.0414L82.7559 20.7903L77.2689 30.4361H75.0107C73.9057 32.7143 72.3682 34.818 70.3886 36.7288C68.6782 38.364 66.8139 39.6777 64.8152 40.6973H84.1108L88.3966 31.1526L93.4607 40.6973H106.357L95.2769 20.4688Z" fill="white"></path>
        </g>
        <g id="&lt;Group&gt;_4">
          <path id="&lt;Path&gt;_2" d="M10.061 40.3118L21.5538 40.3945L34.6706 0.415039H22.4283V0.506904L10.061 40.3118Z" fill="white"></path>
          <path id="&lt;Path&gt;_3" d="M69.3124 6.42274C65.1324 2.37151 60.1259 0.341309 54.293 0.341309L36.1505 0.4148L32.3356 11.9346H53.9374C56.4647 11.9346 58.6076 12.8165 60.3757 14.5711C62.1342 16.3349 63.0183 18.4754 63.0183 20.9924C63.0183 23.5095 62.1342 25.65 60.3757 27.4138C58.6076 29.1684 56.4647 30.0503 53.9374 30.0503C51.439 30.0503 49.2961 29.1684 47.5184 27.3954C45.731 25.6224 44.847 23.4912 44.847 20.9924C44.847 18.4937 46.6535 15.4071 48.4217 13.6341L33.6328 13.6249C33.3349 14.369 33.0947 15.1407 32.8929 15.9307C32.4989 17.5383 32.2971 19.2195 32.2971 20.9924C32.2971 26.7064 34.4112 31.5844 38.6297 35.6173C42.8578 39.6593 47.9508 41.6803 53.9374 41.6803C59.9433 41.6803 65.0555 39.6685 69.2644 35.6448C73.4637 31.6304 75.5681 26.7432 75.5681 20.9924C75.5681 15.3336 73.4733 10.4832 69.3124 6.42274Z" fill="white"></path>
          <path id="&lt;Path&gt;_4" d="M17.6812 11.8246L14.1834 0.415039H0L9.09047 38.3735L17.6812 11.8246Z" fill="white"></path>
        </g>
        <path id="&lt;Path&gt;_5" d="M10.061 40.3118L21.5538 40.3945L34.661 0.442598L22.4283 0.415039V0.506904L10.061 40.3118Z" fill="white"></path>
        <path id="&lt;Path&gt;_6" d="M95.8536 19.2654L105.818 1.62744H93.6819L90.3474 9.36243L95.8536 19.2654Z" fill="white"></path>
      </g>
    </g>
    <g id="&lt;Group&gt;_5">
      <path id="&lt;Compound Path&gt;" d="M10.6855 49.1215V47.4312H15.8842V49.1215H14.3179V55.0743H12.2327V49.1215H10.6855Z" fill="white"></path>
      <path id="&lt;Compound Path&gt;_2" d="M25.58 47.4312V49.0572H22.9182V50.3616H25.4071V51.9325H22.9182V53.4483H25.6761V55.0743H20.833V47.4312H25.58Z" fill="white"></path>
      <path id="&lt;Compound Path&gt;_3" d="M33.9786 48.8643C33.8889 48.705 33.7416 48.6254 33.5366 48.6254C33.3829 48.6254 33.2579 48.6652 33.1618 48.7448C33.0722 48.8244 33.0017 48.9653 32.9504 49.1674C32.9056 49.3634 32.8736 49.6328 32.8543 49.9758C32.8415 50.3126 32.8351 50.7383 32.8351 51.2527C32.8351 51.7672 32.8415 52.1928 32.8543 52.5296C32.8736 52.8726 32.9056 53.1451 32.9504 53.3472C33.0017 53.5432 33.0722 53.681 33.1618 53.7606C33.2579 53.8402 33.3829 53.8801 33.5366 53.8801C33.6647 53.8801 33.7704 53.8494 33.8537 53.7882C33.937 53.7269 34.0011 53.6259 34.0459 53.485C34.0907 53.3381 34.1228 53.1451 34.142 52.9063C34.1612 52.6674 34.1708 52.3674 34.1708 52.006H36.1792V52.5756C36.1856 53.1084 36.1119 53.5463 35.9582 53.8892C35.8108 54.2322 35.6122 54.5017 35.3624 54.6976C35.1189 54.8936 34.8371 55.0253 34.5168 55.0927C34.2029 55.16 33.8761 55.1937 33.5366 55.1937C32.9536 55.1937 32.4764 55.1263 32.1048 54.9916C31.7332 54.8569 31.4418 54.6303 31.2304 54.3118C31.0254 53.9934 30.8812 53.583 30.7979 53.0808C30.7211 52.5786 30.6826 51.9693 30.6826 51.2527C30.6826 50.5239 30.7307 49.9054 30.8268 49.3971C30.9164 48.8949 31.0734 48.4845 31.2976 48.1661C31.5218 47.8537 31.8165 47.6271 32.1817 47.4863C32.5468 47.3515 32.9985 47.2842 33.5366 47.2842C34.0107 47.2842 34.4111 47.3393 34.7378 47.4495C35.0645 47.5659 35.3304 47.7282 35.5354 47.9364C35.7468 48.1508 35.8973 48.4049 35.987 48.6989C36.0831 48.9929 36.1311 49.3266 36.1311 49.7002V50.1871H34.1132V49.7553C34.1132 49.3205 34.0683 49.0235 33.9786 48.8643Z" fill="white"></path>
      <path id="&lt;Compound Path&gt;_4" d="M43.7417 47.4312L45.087 52.1438H45.1159V47.4312H47.0666V55.0743H44.7795L43.3862 50.3524H43.367V55.0743H41.4163V47.4312H43.7417Z" fill="white"></path>
      <path id="&lt;Compound Path&gt;_5" fill-rule="evenodd" clip-rule="evenodd" d="M52.4383 49.4246C52.5344 48.9224 52.6946 48.5121 52.9188 48.1936C53.143 47.8752 53.4409 47.6455 53.8125 47.5047C54.1776 47.3577 54.6229 47.2842 55.1482 47.2842C55.6799 47.2842 56.1283 47.3577 56.4935 47.5047C56.8586 47.6455 57.1533 47.8752 57.3775 48.1936C57.6018 48.5121 57.7651 48.9224 57.8676 49.4246C57.9637 49.9329 58.0118 50.5423 58.0118 51.2527C58.0118 51.9693 57.9637 52.5786 57.8676 53.0808C57.7651 53.583 57.6018 53.9934 57.3775 54.3118C57.1533 54.6303 56.8586 54.8569 56.4935 54.9916C56.1283 55.1263 55.6799 55.1937 55.1482 55.1937C54.6229 55.1937 54.1776 55.1263 53.8125 54.9916C53.4409 54.8569 53.143 54.6303 52.9188 54.3118C52.6946 53.9934 52.5344 53.583 52.4383 53.0808C52.3422 52.5786 52.2942 51.9693 52.2942 51.2527C52.2942 50.5423 52.3422 49.9329 52.4383 49.4246ZM54.4659 52.5296C54.4851 52.8726 54.5172 53.1451 54.562 53.3472C54.6132 53.5432 54.6837 53.681 54.7734 53.7606C54.8695 53.8402 54.9944 53.8801 55.1482 53.8801C55.3083 53.8801 55.4332 53.8402 55.5229 53.7606C55.619 53.681 55.6927 53.5432 55.744 53.3472C55.7888 53.1451 55.8176 52.8726 55.8304 52.5296C55.8497 52.1928 55.8593 51.7672 55.8593 51.2527C55.8593 50.7383 55.8497 50.3126 55.8304 49.9758C55.8176 49.6328 55.7888 49.3634 55.744 49.1674C55.6927 48.9653 55.619 48.8244 55.5229 48.7448C55.4332 48.6652 55.3083 48.6254 55.1482 48.6254C54.9944 48.6254 54.8695 48.6652 54.7734 48.7448C54.6837 48.8244 54.6132 48.9653 54.562 49.1674C54.5172 49.3634 54.4851 49.6328 54.4659 49.9758C54.4531 50.3126 54.4467 50.7383 54.4467 51.2527C54.4467 51.7672 54.4531 52.1928 54.4659 52.5296Z" fill="white"></path>
      <path id="&lt;Compound Path&gt;_6" d="M65.3245 47.4312V53.4483H67.8902V55.0743H63.2393V47.4312H65.3245Z" fill="white"></path>
      <path id="&lt;Compound Path&gt;_7" fill-rule="evenodd" clip-rule="evenodd" d="M72.8197 49.4246C72.9158 48.9224 73.0759 48.5121 73.3001 48.1936C73.5244 47.8752 73.8191 47.6455 74.1842 47.5047C74.5494 47.3577 74.9978 47.2842 75.5295 47.2842C76.0612 47.2842 76.5097 47.3577 76.8748 47.5047C77.24 47.6455 77.5347 47.8752 77.7589 48.1936C77.9831 48.5121 78.1433 48.9224 78.2394 49.4246C78.3355 49.9329 78.3867 50.5423 78.3931 51.2527C78.3867 51.9693 78.3355 52.5786 78.2394 53.0808C78.1433 53.583 77.9831 53.9934 77.7589 54.3118C77.5347 54.6303 77.24 54.8569 76.8748 54.9916C76.5097 55.1263 76.0612 55.1937 75.5295 55.1937C74.9978 55.1937 74.5494 55.1263 74.1842 54.9916C73.8191 54.8569 73.5244 54.6303 73.3001 54.3118C73.0759 53.9934 72.9158 53.583 72.8197 53.0808C72.7236 52.5786 72.6755 51.9693 72.6755 51.2527C72.6755 50.5423 72.7236 49.9329 72.8197 49.4246ZM74.8473 52.5296C74.8601 52.8726 74.8921 53.1451 74.9434 53.3472C74.9946 53.5432 75.0651 53.681 75.1548 53.7606C75.2508 53.8402 75.3758 53.8801 75.5295 53.8801C75.6897 53.8801 75.8146 53.8402 75.9043 53.7606C76.0004 53.681 76.0708 53.5432 76.1157 53.3472C76.1669 53.1451 76.199 52.8726 76.2118 52.5296C76.231 52.1928 76.2406 51.7672 76.2406 51.2527C76.2406 50.7383 76.231 50.3126 76.2118 49.9758C76.199 49.6328 76.1669 49.3634 76.1157 49.1674C76.0708 48.9653 76.0004 48.8244 75.9043 48.7448C75.8146 48.6652 75.6897 48.6254 75.5295 48.6254C75.3758 48.6254 75.2508 48.6652 75.1548 48.7448C75.0651 48.8244 74.9946 48.9653 74.9434 49.1674C74.8921 49.3634 74.8601 49.6328 74.8473 49.9758C74.8344 50.3126 74.828 50.7383 74.828 51.2527C74.828 51.7672 74.8344 52.1928 74.8473 52.5296Z" fill="white"></path>
      <path id="&lt;Compound Path&gt;_8" d="M88.9923 50.922V55.0743H87.5893L87.5412 54.4037H87.522C87.4516 54.569 87.3555 54.7038 87.2337 54.8079C87.112 54.9181 86.9743 55.0008 86.8205 55.0559C86.6668 55.1049 86.5034 55.1417 86.3305 55.1662C86.1511 55.1845 85.9717 55.1937 85.7923 55.1937C85.2606 55.1937 84.841 55.111 84.5335 54.9457C84.2324 54.7742 84.0018 54.5231 83.8416 54.1924C83.6879 53.8556 83.5886 53.4391 83.5437 52.943C83.5053 52.4531 83.4861 51.8897 83.4861 51.2527C83.4861 50.6097 83.5245 50.0432 83.6014 49.5532C83.6783 49.0572 83.8288 48.6438 84.053 48.3131C84.2709 47.9762 84.5751 47.719 84.9659 47.5414C85.3503 47.3699 85.85 47.2842 86.465 47.2842C86.8301 47.2842 87.1697 47.3301 87.4836 47.422C87.7911 47.5138 88.0569 47.6639 88.2812 47.8721C88.5054 48.0803 88.6816 48.3467 88.8097 48.6713C88.9314 48.9959 88.9923 49.3879 88.9923 49.8472H86.9839C86.9839 49.443 86.9455 49.149 86.8686 48.9653C86.7917 48.7448 86.6316 48.6315 86.3881 48.6254C86.2151 48.6254 86.0774 48.6652 85.9749 48.7448C85.8788 48.8244 85.8052 48.9653 85.7539 49.1674C85.7027 49.3634 85.6706 49.6328 85.6578 49.9758C85.645 50.3126 85.6386 50.7383 85.6386 51.2527C85.6386 51.7672 85.645 52.1928 85.6578 52.5296C85.6706 52.8726 85.7027 53.1451 85.7539 53.3472C85.8052 53.5432 85.8756 53.681 85.9653 53.7606C86.0614 53.8402 86.1863 53.8801 86.3401 53.8801C86.4554 53.8801 86.5547 53.8586 86.638 53.8157C86.7276 53.7729 86.8013 53.6933 86.859 53.5769C86.9166 53.4575 86.9647 53.2921 86.9935 53.0808C87.0319 52.8726 87.0512 52.6031 87.0512 52.2724H86.3112V50.922H88.9923Z" fill="white"></path>
      <path id="&lt;Compound Path&gt;_9" d="M94.2488 47.4312H96.334V55.0743H94.2488V47.4312Z" fill="white"></path>
      <path id="&lt;Compound Path&gt;_10" fill-rule="evenodd" clip-rule="evenodd" d="M105.655 47.4312L107.606 55.0743H105.386L105.175 53.7422H103.512L103.301 55.0743H101.119L103.032 47.4312H105.655ZM104.339 48.9928L103.762 52.2357H104.934L104.358 48.9928H104.339Z" fill="white"></path>
    </g>
  </g>
</svg>
